<svg xmlns="http://www.w3.org/2000/svg" viewBox="0 0 15 20"><defs><style>.cls-1{fill:#fff;}</style></defs><title>Asset 33</title><g id="Layer_2" data-name="Layer 2"><g id="Layer_1-2" data-name="Layer 1"><path class="cls-1" d="M15,4.38V18.12A1.88,1.88,0,0,1,13.12,20H1.88A1.88,1.88,0,0,1,0,18.12V4.38A1.88,1.88,0,0,1,1.88,2.5H5a2.5,2.5,0,0,1,5,0h3.12A1.88,1.88,0,0,1,15,4.38ZM7.5,1.56a.94.94,0,1,0,.94.94.94.94,0,0,0-.94-.94M11.25,6V5.23A.23.23,0,0,0,11,5H4a.23.23,0,0,0-.23.23V6A.23.23,0,0,0,4,6.25h7A.23.23,0,0,0,11.25,6ZM6.66,11c0-.4.36-.65.92-.65a2.33,2.33,0,0,1,1.29.48.19.19,0,0,0,.29-.07l.4-.73a.2.2,0,0,0,0-.25A3,3,0,0,0,8,9.13V8.34a.2.2,0,0,0-.2-.2H7.11a.2.2,0,0,0-.2.2v.84A1.92,1.92,0,0,0,5.27,11c0,2.08,3.11,1.87,3.11,2.85,0,.33-.28.69-.88.69A2.48,2.48,0,0,1,6,13.94a.19.19,0,0,0-.28,0l-.51.68a.19.19,0,0,0,0,.27,3.2,3.2,0,0,0,1.66.8v.81a.2.2,0,0,0,.2.2h.67a.2.2,0,0,0,.2-.2v-.79a2,2,0,0,0,1.79-2c0-2-3.11-1.75-3.11-2.8Z"/></g></g></svg>