<svg xmlns="http://www.w3.org/2000/svg" viewBox="0 0 9.5 10"><defs><style>.cls-1{fill:#58697d;}</style></defs><title>Asset 20</title><g id="Layer_2" data-name="Layer 2"><g id="Layer_1-2" data-name="Layer 1"><path class="cls-1" d="M0,9.33V.67A.67.67,0,0,1,.67,0H8.83A.67.67,0,0,1,9.5.67V9.33a.67.67,0,0,1-.67.67H.67A.67.67,0,0,1,0,9.33ZM7.38,2.88h-2v-.5A.38.38,0,0,0,5,2H4.5a.38.38,0,0,0-.38.38v.5h-2a.37.37,0,0,0-.37.37v.5a.38.38,0,0,0,.37.38H5.69a4.94,4.94,0,0,1-.94,1.35,7.83,7.83,0,0,1-.54-.66.38.38,0,0,0-.5-.11l-.23.14L3.28,5a.38.38,0,0,0-.12.54,6.82,6.82,0,0,0,.66.8c-.26.19-.53.38-.82.56a.38.38,0,0,0-.13.51l.25.43a.37.37,0,0,0,.52.13,10.35,10.35,0,0,0,1.11-.77,10.35,10.35,0,0,0,1.11.77.37.37,0,0,0,.52-.13l.25-.43a.38.38,0,0,0-.13-.51c-.28-.17-.55-.36-.82-.56A5.6,5.6,0,0,0,7,4.12h.36a.37.37,0,0,0,.37-.37v-.5a.37.37,0,0,0-.37-.37Z"/></g></g></svg>