<svg xmlns="http://www.w3.org/2000/svg" viewBox="0 0 20 20"><defs><style>.cls-1{fill:#fff;opacity:0.8;}</style></defs><title>Asset 40</title><g id="Layer_2" data-name="Layer 2"><g id="Layer_1-2" data-name="Layer 1"><path class="cls-1" d="M.21,4.06a13.83,13.83,0,0,1,19.58,0,.7.7,0,0,1,.1.88L18.2,7.64a.7.7,0,0,1-.87.29L14,6.58a.73.73,0,0,1-.44-.74l.23-2.32a11,11,0,0,0-7.48,0l.23,2.32a.73.73,0,0,1-.44.74L2.67,7.93a.7.7,0,0,1-.87-.29L.11,4.94A.7.7,0,0,1,.21,4.06Zm3.54,8V10.47A.47.47,0,0,0,3.28,10H1.72a.47.47,0,0,0-.47.47V12a.47.47,0,0,0,.47.47H3.28A.47.47,0,0,0,3.75,12ZM7.5,12V10.47A.47.47,0,0,0,7,10H5.47a.47.47,0,0,0-.47.47V12a.47.47,0,0,0,.47.47H7A.47.47,0,0,0,7.5,12Zm3.75,0V10.47a.47.47,0,0,0-.47-.47H9.22a.47.47,0,0,0-.47.47V12a.47.47,0,0,0,.47.47h1.56A.47.47,0,0,0,11.25,12ZM15,12V10.47a.47.47,0,0,0-.47-.47H13a.47.47,0,0,0-.47.47V12a.47.47,0,0,0,.47.47h1.56A.47.47,0,0,0,15,12Zm3.75,0V10.47a.47.47,0,0,0-.47-.47H16.72a.47.47,0,0,0-.47.47V12a.47.47,0,0,0,.47.47h1.56A.47.47,0,0,0,18.75,12ZM5.63,15.78V14.22a.47.47,0,0,0-.47-.47H3.59a.46.46,0,0,0-.46.47v1.56a.46.46,0,0,0,.46.47H5.16A.47.47,0,0,0,5.63,15.78Zm3.75,0V14.22a.47.47,0,0,0-.47-.47H7.34a.46.46,0,0,0-.46.47v1.56a.46.46,0,0,0,.46.47H8.91A.47.47,0,0,0,9.38,15.78Zm3.75,0V14.22a.47.47,0,0,0-.47-.47H11.09a.46.46,0,0,0-.46.47v1.56a.46.46,0,0,0,.46.47h1.57A.47.47,0,0,0,13.13,15.78Zm3.75,0V14.22a.47.47,0,0,0-.47-.47H14.84a.46.46,0,0,0-.46.47v1.56a.46.46,0,0,0,.46.47h1.57A.47.47,0,0,0,16.88,15.78ZM3.75,19.53V18a.47.47,0,0,0-.47-.47H1.72a.47.47,0,0,0-.47.47v1.56a.47.47,0,0,0,.47.47H3.28A.47.47,0,0,0,3.75,19.53Zm11.25,0V18a.47.47,0,0,0-.47-.47H5.47A.47.47,0,0,0,5,18v1.56a.47.47,0,0,0,.47.47h9.06A.47.47,0,0,0,15,19.53Zm3.75,0V18a.47.47,0,0,0-.47-.47H16.72a.47.47,0,0,0-.47.47v1.56a.47.47,0,0,0,.47.47h1.56A.47.47,0,0,0,18.75,19.53Z"/></g></g></svg>