<svg xmlns="http://www.w3.org/2000/svg" viewBox="0 0 20 20"><defs><style>.cls-1{fill:#fff;}</style></defs><title>Asset 10</title><g id="Layer_2" data-name="Layer 2"><g id="Layer_1-2" data-name="Layer 1"><path class="cls-1" d="M10,0A10,10,0,1,0,20,10,10,10,0,0,0,10,0Zm0,4.44A1.69,1.69,0,1,1,8.31,6.13,1.68,1.68,0,0,1,10,4.44Zm2.26,10.24a.49.49,0,0,1-.49.48H8.23a.49.49,0,0,1-.49-.48v-1a.48.48,0,0,1,.49-.48h.48V10.65H8.23a.49.49,0,0,1-.49-.49v-1a.49.49,0,0,1,.49-.48h2.58a.49.49,0,0,1,.48.48v4h.48a.48.48,0,0,1,.49.48Z"/></g></g></svg>