<svg xmlns="http://www.w3.org/2000/svg" viewBox="0 0 20 11.96"><defs><style>.cls-1{fill:#fff;}</style></defs><title>Asset 31</title><g id="Layer_2" data-name="Layer 2"><g id="Layer_1-2" data-name="Layer 1"><path class="cls-1" d="M2.25,1.5H.75A.76.76,0,0,0,0,2.25v6.5a.76.76,0,0,0,.75.75h1.5A.76.76,0,0,0,3,8.75V2.25A.76.76,0,0,0,2.25,1.5ZM1.5,8.62a.62.62,0,1,1,0-1.24.62.62,0,1,1,0,1.24ZM19.25,1.5h-1.5a.76.76,0,0,0-.75.75v6.5a.76.76,0,0,0,.75.75h1.5A.76.76,0,0,0,20,8.75V2.25A.76.76,0,0,0,19.25,1.5ZM18.5,8.62A.62.62,0,1,1,19.12,8,.61.61,0,0,1,18.5,8.62ZM15.19.9,16.5,2.4V8h-.6a1.72,1.72,0,0,0-.44-1.24L12.93,3.67a.25.25,0,0,0-.32-.37s-1.89,2-1.89,2h0a1.83,1.83,0,0,1-2.78,0,1.53,1.53,0,0,1,0-2L10,.8A2.33,2.33,0,0,1,11.77,0h1.44A2.63,2.63,0,0,1,15.19.9Zm-.11,6.18A1.34,1.34,0,0,1,15,8.89a1.35,1.35,0,0,1-1.44.28,1.64,1.64,0,0,1-1.76,1.4,1.46,1.46,0,0,1-1.85.92A1.8,1.8,0,0,1,8.71,12a3.1,3.1,0,0,1-2.26-1L3.5,8V2.24L5.42.65A2.28,2.28,0,0,1,7,0H8.17A1.9,1.9,0,0,1,9.55.59l-2,2.32a2,2,0,0,0,0,2.63,2.33,2.33,0,0,0,3.54.06L12.59,4Z"/></g></g></svg>