<svg xmlns="http://www.w3.org/2000/svg" viewBox="0 0 255.63 74.4"><defs><style>.cls-1{fill:#696cac;}.cls-2{fill:#231f20;}</style></defs><title>Asset 51</title><g id="Layer_2" data-name="Layer 2"><g id="Layer_1-2" data-name="Layer 1"><polygon class="cls-1" points="190.64 0 210.38 0 208.25 19.44 189.12 19.44 190.64 0"/><polygon class="cls-1" points="187.6 25.82 207.34 25.82 205.22 45.25 186.08 45.25 187.6 25.82"/><polygon class="cls-1" points="185.52 51.33 205.26 51.33 203.14 70.77 184 70.77 185.52 51.33"/><polygon class="cls-1" points="210.38 51.33 230.12 51.33 227.99 70.77 208.86 70.77 210.38 51.33"/><polygon class="cls-1" points="212.46 25.82 232.2 25.82 230.07 45.25 210.94 45.25 212.46 25.82"/><polygon class="cls-1" points="235.89 51.33 255.63 51.33 253.51 70.77 234.37 70.77 235.89 51.33"/><path class="cls-2" d="M0,61.85,6.5,20.67h11L14.74,37.88,30.41,20.67H44.64L24.36,41l14,20.85h-13L13.81,43.7,10.94,61.85Z"/><path class="cls-2" d="M47.91,50v.65a5.64,5.64,0,0,0,1.38,4.11,5.36,5.36,0,0,0,4,1.4,8.06,8.06,0,0,0,3.5-.77,14.41,14.41,0,0,0,3.53-2.49l5.4,5.46a15.83,15.83,0,0,1-5.58,3.46A20.54,20.54,0,0,1,53.08,63q-6.94,0-10.78-3.7T38.46,48.94a15.64,15.64,0,0,1,16.4-16.4,14.32,14.32,0,0,1,10.59,4q4,4,4,10.66c0,.39-.06,1.11-.17,2.14,0,.32-.07.54-.09.67Zm12.15-5.76a5.28,5.28,0,0,0-1.55-3.66,5.13,5.13,0,0,0-3.71-1.35,5.81,5.81,0,0,0-3.73,1.32,8.17,8.17,0,0,0-2.49,3.69Z"/><path class="cls-2" d="M79.36,60.41l-8.08-27H81.66L84.14,45.7c0,.17.09.41.17.73a24.14,24.14,0,0,1,.59,4.22c.21-.73.47-1.51.8-2.35s.73-1.74,1.2-2.71l5.88-12.15h10.77l-22,41H71Z"/><path class="cls-2" d="M103.83,61.85l3.35-21.16h-4.73l1.16-7.25h4.72l1.27-8.25h10l-1.32,8.25h5.09l-1.15,7.25h-5.09l-3.32,21.16Z"/><path class="cls-2" d="M122.82,61.85l4.47-28.41h10.1l-4.5,28.41ZM128.05,25a5.36,5.36,0,0,1,5.35-5.35,5.33,5.33,0,0,1,3.88,1.52A5.16,5.16,0,0,1,138.83,25a5.39,5.39,0,0,1-5.43,5.43,5.14,5.14,0,0,1-3.79-1.59A5.28,5.28,0,0,1,128.05,25Z"/><path class="cls-2" d="M162.51,58.05a14.23,14.23,0,0,1-4.57,3.62,12.29,12.29,0,0,1-5.41,1.22,10.05,10.05,0,0,1-8-3.69,14.18,14.18,0,0,1-3.14-9.56,18,18,0,0,1,4.25-12.24,13.49,13.49,0,0,1,10.6-4.86,11.18,11.18,0,0,1,5.29,1.22,12.64,12.64,0,0,1,4.22,3.78l.65-4.1h9.51l-4.5,28.41H162Zm-11-9.39a5.7,5.7,0,0,0,6,6,6.25,6.25,0,0,0,5-2.32,8.63,8.63,0,0,0,2-5.81,5.81,5.81,0,0,0-1.66-4.29,5.94,5.94,0,0,0-4.34-1.64,6.37,6.37,0,0,0-5,2.28A8.43,8.43,0,0,0,151.46,48.66Z"/><path class="cls-2" d="M183.55,29.35a3.34,3.34,0,1,1-3.33-3.25A3.26,3.26,0,0,1,183.55,29.35Zm-5.85,0a2.52,2.52,0,0,0,2.54,2.6,2.6,2.6,0,0,0,0-5.19A2.53,2.53,0,0,0,177.7,29.35Zm2,1.71H179V27.81a6.45,6.45,0,0,1,1.25-.1,2,2,0,0,1,1.13.24.9.9,0,0,1,.31.71.82.82,0,0,1-.67.75v0a1,1,0,0,1,.59.79,2.51,2.51,0,0,0,.24.82H181a2.81,2.81,0,0,1-.26-.8c-.06-.35-.26-.51-.67-.51h-.36Zm0-1.85h.36c.41,0,.75-.13.75-.47s-.22-.5-.69-.5a1.82,1.82,0,0,0-.42,0Z"/></g></g></svg>