<svg xmlns="http://www.w3.org/2000/svg" viewBox="0 0 20 17.5"><defs><style>.cls-1{fill:#f58426;}</style></defs><title>Asset 6</title><g id="Layer_2" data-name="Layer 2"><g id="Layer_1-2" data-name="Layer 1"><path class="cls-1" d="M.71,3.21H19.29A.71.71,0,0,0,20,2.5V.71A.71.71,0,0,0,19.29,0H.71A.71.71,0,0,0,0,.71V2.5A.71.71,0,0,0,.71,3.21Zm0,7.15H19.29A.71.71,0,0,0,20,9.64V7.86a.71.71,0,0,0-.71-.72H.71A.71.71,0,0,0,0,7.86V9.64A.71.71,0,0,0,.71,10.36Zm0,7.14H19.29a.71.71,0,0,0,.71-.71V15a.71.71,0,0,0-.71-.71H.71A.71.71,0,0,0,0,15v1.79A.71.71,0,0,0,.71,17.5Z"/></g></g></svg>