<svg xmlns="http://www.w3.org/2000/svg" viewBox="0 0 40.53 51"><defs><style>.cls-1{fill:#fff;}</style></defs><title>Asset 60</title><g id="Layer_2" data-name="Layer 2"><g id="Layer_1-2" data-name="Layer 1"><polygon class="cls-1" points="6.02 0 15.38 0 14.38 9.22 5.3 9.22 6.02 0"/><polygon class="cls-1" points="4.58 12.25 13.94 12.25 12.93 21.47 3.86 21.47 4.58 12.25"/><polygon class="cls-1" points="3.59 24.35 12.96 24.35 11.95 33.57 2.87 33.57 3.59 24.35"/><polygon class="cls-1" points="15.38 24.35 24.75 24.35 23.74 33.57 14.66 33.57 15.38 24.35"/><polygon class="cls-1" points="16.37 12.25 25.73 12.25 24.73 21.47 15.65 21.47 16.37 12.25"/><polygon class="cls-1" points="27.49 24.35 36.85 24.35 35.84 33.57 26.77 33.57 27.49 24.35"/><path class="cls-1" d="M0,48.23l1.43-9.09H3.87l-.62,3.8,3.46-3.8H9.86L5.38,43.63l3.09,4.6H5.6l-2.55-4-.63,4Z"/><path class="cls-1" d="M10.58,45.62v.14a1.26,1.26,0,0,0,.3.91,1.19,1.19,0,0,0,.89.31,1.84,1.84,0,0,0,.77-.17,3,3,0,0,0,.78-.55l1.2,1.21a3.52,3.52,0,0,1-1.24.76,4.48,4.48,0,0,1-1.56.25,3.3,3.3,0,0,1-2.38-.81,3,3,0,0,1-.85-2.29,3.45,3.45,0,0,1,3.62-3.62,3.13,3.13,0,0,1,2.34.89A3.17,3.17,0,0,1,15.34,45c0,.09,0,.24,0,.47,0,.07,0,.12,0,.15Zm2.68-1.27a1.16,1.16,0,0,0-.34-.81,1.13,1.13,0,0,0-.82-.3,1.28,1.28,0,0,0-.82.29,1.73,1.73,0,0,0-.55.82Z"/><path class="cls-1" d="M17.52,47.91,15.74,42H18l.55,2.7s0,.1,0,.17a6.41,6.41,0,0,1,.13.93,4.47,4.47,0,0,1,.17-.52c.08-.19.16-.39.27-.6L20.49,42h2.37L18,51H15.68Z"/><path class="cls-1" d="M22.93,48.23l.74-4.67H22.62l.26-1.6h1l.28-1.82h2.21L26.12,42h1.12L27,43.56H25.86l-.73,4.67Z"/><path class="cls-1" d="M27.12,48.23l1-6.27h2.23l-1,6.27Zm1.15-8.14a1.16,1.16,0,0,1,.35-.84,1.13,1.13,0,0,1,.83-.34,1.18,1.18,0,0,1,.86.33,1.15,1.15,0,0,1,.34.85,1.16,1.16,0,0,1-.34.85,1.19,1.19,0,0,1-.86.35,1.11,1.11,0,0,1-.83-.36A1.15,1.15,0,0,1,28.27,40.09Z"/><path class="cls-1" d="M35.88,47.39a3.16,3.16,0,0,1-1,.8,2.66,2.66,0,0,1-1.19.27,2.22,2.22,0,0,1-1.77-.81,3.13,3.13,0,0,1-.7-2.12,4,4,0,0,1,.94-2.7,3,3,0,0,1,2.34-1.07,2.46,2.46,0,0,1,1.17.27,2.88,2.88,0,0,1,.93.83l.14-.9h2.1l-1,6.27H35.78Zm-2.44-2.07a1.3,1.3,0,0,0,.37,1,1.32,1.32,0,0,0,1,.36,1.37,1.37,0,0,0,1.09-.51,1.86,1.86,0,0,0,.44-1.28,1.29,1.29,0,0,0-.36-1,1.33,1.33,0,0,0-1-.36,1.39,1.39,0,0,0-1.11.5A1.87,1.87,0,0,0,33.44,45.32Z"/><path class="cls-1" d="M40.53,41.05a.74.74,0,1,1-.74-.71A.72.72,0,0,1,40.53,41.05Zm-1.29,0a.56.56,0,0,0,.56.58.58.58,0,1,0-.56-.58Zm.44.38h-.17v-.72l.28,0a.49.49,0,0,1,.25.05.2.2,0,0,1,.07.16.19.19,0,0,1-.15.17h0a.2.2,0,0,1,.13.17.5.5,0,0,0,0,.18H40a.71.71,0,0,1-.05-.17.14.14,0,0,0-.15-.12h-.08Zm0-.41h.08c.09,0,.17,0,.17-.1s0-.11-.16-.11h-.09Z"/></g></g></svg>