<svg xmlns="http://www.w3.org/2000/svg" viewBox="0 0 15 20"><defs><style>.cls-1{fill:#fff;}</style></defs><title>Asset 35</title><g id="Layer_2" data-name="Layer 2"><g id="Layer_1-2" data-name="Layer 1"><path class="cls-1" d="M15,5.15v13A1.88,1.88,0,0,1,13.12,20H1.88A1.88,1.88,0,0,1,0,18.12V1.88A1.88,1.88,0,0,1,1.88,0h8a1.88,1.88,0,0,1,1.32.55l3.28,3.28A1.88,1.88,0,0,1,15,5.15Zm-1.88,13V6.88H9.06a.94.94,0,0,1-.94-.94V1.88H1.88V18.12Zm-1.25-6.43v1.09a.48.48,0,0,1-.47.47H3.6a.48.48,0,0,1-.47-.47V11.69a.48.48,0,0,1,.47-.47h7.8A.48.48,0,0,1,11.87,11.69Zm-.47,2.4H3.6a.48.48,0,0,0-.47.47v1.09a.48.48,0,0,0,.47.47h7.8a.48.48,0,0,0,.47-.47V14.56A.48.48,0,0,0,11.4,14.09ZM10,2V5h3ZM4.35,5.3c0-.27.26-.45.65-.45a1.57,1.57,0,0,1,.89.33.15.15,0,0,0,.21,0l.28-.51a.17.17,0,0,0,0-.18A2,2,0,0,0,5.28,4V3.46a.14.14,0,0,0-.14-.14H4.67a.14.14,0,0,0-.14.14V4A1.34,1.34,0,0,0,3.39,5.31c0,1.45,2.16,1.3,2.16,2,0,.23-.19.48-.61.48a1.7,1.7,0,0,1-1-.42.14.14,0,0,0-.2,0l-.36.47a.15.15,0,0,0,0,.19,2.22,2.22,0,0,0,1.16.56v.57a.14.14,0,0,0,.14.14h.47a.15.15,0,0,0,.14-.14V8.62A1.38,1.38,0,0,0,6.52,7.25C6.52,5.85,4.35,6,4.35,5.3Z"/></g></g></svg>