<svg xmlns="http://www.w3.org/2000/svg" viewBox="0 0 20 20"><defs><style>.cls-1{fill:#fff;}</style></defs><title>Asset 14</title><g id="Layer_2" data-name="Layer 2"><g id="Layer_1-2" data-name="Layer 1"><path class="cls-1" d="M16.54,11.37l-.83-.24A7,7,0,1,0,3,7a7,7,0,0,0,1.32,4.1l-.83.24A4.79,4.79,0,0,0,0,16v1a3,3,0,0,0,3,3H17a3,3,0,0,0,3-3V16a4.79,4.79,0,0,0-3.46-4.59ZM10,1.88A5.16,5.16,0,1,1,4.84,7,5.15,5.15,0,0,1,10,1.88ZM18.12,17A1.15,1.15,0,0,1,17,18.12H3A1.15,1.15,0,0,1,1.88,17V16A2.9,2.9,0,0,1,4,13.17l1.8-.51a7.06,7.06,0,0,0,8.44,0l1.8.51A2.9,2.9,0,0,1,18.12,16Z"/></g></g></svg>