<svg xmlns="http://www.w3.org/2000/svg" viewBox="0 0 15 20"><defs><style>.cls-1{fill:#fff;opacity:0.8;}</style></defs><title>Asset 41</title><g id="Layer_2" data-name="Layer 2"><g id="Layer_1-2" data-name="Layer 1"><path class="cls-1" d="M13.12,0H1.88A1.88,1.88,0,0,0,0,1.88V18.12A1.88,1.88,0,0,0,1.88,20H13.12A1.88,1.88,0,0,0,15,18.12V1.88A1.88,1.88,0,0,0,13.12,0ZM5,1.72a.47.47,0,0,1,.47-.47H9.53a.47.47,0,0,1,.47.47V2a.47.47,0,0,1-.47.47H5.47A.47.47,0,0,1,5,2ZM7.5,6.25A3.13,3.13,0,1,1,4.38,9.38,3.12,3.12,0,0,1,7.5,6.25Zm5,9.06a.94.94,0,0,1-.94.94H3.44a.94.94,0,0,1-.94-.94v-.72a1.88,1.88,0,0,1,1.42-1.82l1.39-.35a3.76,3.76,0,0,0,4.38,0l1.39.35a1.88,1.88,0,0,1,1.42,1.82Z"/></g></g></svg>