<svg xmlns="http://www.w3.org/2000/svg" viewBox="0 0 7.5 10"><defs><style>.cls-1{fill:#58697d;}</style></defs><title>Asset 55</title><g id="Layer_2" data-name="Layer 2"><g id="Layer_1-2" data-name="Layer 1"><path class="cls-1" d="M4.38,2.66V0H.47A.47.47,0,0,0,0,.47V9.53A.47.47,0,0,0,.47,10H7a.47.47,0,0,0,.47-.47V3.12H4.84A.47.47,0,0,1,4.38,2.66ZM5.49,5H6a.24.24,0,0,1,.23.29L5.44,8.57a.23.23,0,0,1-.23.18H4.47a.22.22,0,0,1-.22-.18,14.45,14.45,0,0,1-.5-2.16h0a18.79,18.79,0,0,1-.5,2.16A.23.23,0,0,1,3,8.75H2.29a.24.24,0,0,1-.23-.18L1.32,5.29A.24.24,0,0,1,1.55,5H2a.24.24,0,0,1,.23.19c.3,1.52.39,2.14.41,2.39,0-.2.14-.64.57-2.4A.23.23,0,0,1,3.47,5H4a.25.25,0,0,1,.23.18c.46,2,.56,2.42.57,2.53a9.88,9.88,0,0,1,.43-2.52A.22.22,0,0,1,5.49,5Zm2-2.62V2.5H5V0h.12a.47.47,0,0,1,.33.14L7.36,2.05A.47.47,0,0,1,7.5,2.38Z"/></g></g></svg>