<svg xmlns="http://www.w3.org/2000/svg" viewBox="0 0 15 20"><defs><style>.cls-1{fill:#fff;}</style></defs><title>Asset 47</title><g id="Layer_2" data-name="Layer 2"><g id="Layer_1-2" data-name="Layer 1"><path class="cls-1" d="M15,5.62a3.13,3.13,0,1,0-4,3,2.52,2.52,0,0,1-.43,1.45c-.61.75-1.93.87-3.33,1a9.44,9.44,0,0,0-3.18.66V6.11a3.13,3.13,0,1,0-1.87,0v7.78A3.13,3.13,0,1,0,4.25,14a1.36,1.36,0,0,1,.58-.52,7.76,7.76,0,0,1,2.58-.5c1.65-.15,3.52-.33,4.62-1.7a4.18,4.18,0,0,0,.85-2.65,3.14,3.14,0,0,0,2.12-3ZM3.13,2.5a.63.63,0,1,1-.63.62A.62.62,0,0,1,3.13,2.5Zm0,15a.63.63,0,1,1,.62-.63A.63.63,0,0,1,3.13,17.5ZM11.88,5a.63.63,0,1,1-.63.62A.62.62,0,0,1,11.88,5Z"/></g></g></svg>