<svg xmlns="http://www.w3.org/2000/svg" viewBox="0 0 18.33 20"><defs><style>.cls-1{fill:#fff;}</style></defs><title>Asset 42</title><g id="Layer_2" data-name="Layer 2"><g id="Layer_1-2" data-name="Layer 1"><path class="cls-1" d="M17.85,13.05,12.29,10l5.56-3a.94.94,0,0,0,.36-1.29l-.76-1.32A1,1,0,0,0,16.15,4L10.73,7.29,10.86,1a.93.93,0,0,0-.93-1H8.41a.94.94,0,0,0-.94,1L7.6,7.29,2.18,4a.94.94,0,0,0-1.29.33L.13,5.66A.93.93,0,0,0,.49,7L6,10,.49,13.05a.93.93,0,0,0-.36,1.29l.76,1.32A.94.94,0,0,0,2.18,16L7.6,12.71,7.47,19a.94.94,0,0,0,.94,1H9.93a.93.93,0,0,0,.93-1l-.13-6.33L16.15,16a1,1,0,0,0,1.3-.33l.76-1.32A.94.94,0,0,0,17.85,13.05Z"/></g></g></svg>