<svg xmlns="http://www.w3.org/2000/svg" viewBox="0 0 10 7.62"><defs><style>.cls-1{fill:#58697d;}</style></defs><title>Asset 28</title><g id="Layer_2" data-name="Layer 2"><g id="Layer_1-2" data-name="Layer 1"><path class="cls-1" d="M9.86,4.15,6.53,7.48a.48.48,0,0,1-.82-.34V5.24H3a.47.47,0,0,1-.48-.48V2.86A.47.47,0,0,1,3,2.38H5.71V.48A.48.48,0,0,1,6.53.14L9.86,3.47A.48.48,0,0,1,9.86,4.15Zm-6,3.23V6.59a.24.24,0,0,0-.24-.24H1.9a.63.63,0,0,1-.63-.64V1.91a.63.63,0,0,1,.63-.64H3.57A.24.24,0,0,0,3.81,1V.24A.24.24,0,0,0,3.57,0H1.9A1.9,1.9,0,0,0,0,1.91v3.8A1.9,1.9,0,0,0,1.9,7.62H3.57A.24.24,0,0,0,3.81,7.38Z"/></g></g></svg>