<svg xmlns="http://www.w3.org/2000/svg" viewBox="0 0 12.5 20"><defs><style>.cls-1{fill:#fff;}</style></defs><title>Asset 46</title><g id="Layer_2" data-name="Layer 2"><g id="Layer_1-2" data-name="Layer 1"><path class="cls-1" d="M10.62,0H1.88A1.88,1.88,0,0,0,0,1.88V18.12A1.88,1.88,0,0,0,1.88,20h8.74a1.88,1.88,0,0,0,1.88-1.88V1.88A1.88,1.88,0,0,0,10.62,0ZM6.25,18.75A1.25,1.25,0,1,1,7.5,17.5,1.25,1.25,0,0,1,6.25,18.75Zm4.37-4.22a.47.47,0,0,1-.46.47H2.34a.47.47,0,0,1-.46-.47V2.34a.47.47,0,0,1,.46-.46h7.82a.47.47,0,0,1,.46.46Z"/></g></g></svg>