<svg xmlns="http://www.w3.org/2000/svg" viewBox="0 0 150.91 43.92"><defs><style>.cls-1{fill:#fff;}</style></defs><title>Asset 5</title><g id="Layer_2" data-name="Layer 2"><g id="Layer_1-2" data-name="Layer 1"><polygon class="cls-1" points="112.54 0 124.19 0 122.94 11.47 111.64 11.47 112.54 0"/><polygon class="cls-1" points="110.75 15.24 122.4 15.24 121.14 26.71 109.85 26.71 110.75 15.24"/><polygon class="cls-1" points="109.52 30.3 121.17 30.3 119.92 41.78 108.62 41.78 109.52 30.3"/><polygon class="cls-1" points="124.19 30.3 135.85 30.3 134.59 41.78 123.3 41.78 124.19 30.3"/><polygon class="cls-1" points="125.42 15.24 137.07 15.24 135.82 26.71 124.52 26.71 125.42 15.24"/><polygon class="cls-1" points="139.25 30.3 150.91 30.3 149.65 41.78 138.36 41.78 139.25 30.3"/><path class="cls-1" d="M0,36.51,3.84,12.2h6.51L8.7,22.36,18,12.2h8.4l-12,12,8.27,12.3H15L8.15,25.8,6.46,36.51Z"/><path class="cls-1" d="M28.28,29.54v.38a3.32,3.32,0,0,0,.81,2.42,3.18,3.18,0,0,0,2.38.83,4.88,4.88,0,0,0,2.07-.45,8.92,8.92,0,0,0,2.08-1.47l3.19,3.22a9.24,9.24,0,0,1-3.3,2,11.92,11.92,0,0,1-4.17.68A8.82,8.82,0,0,1,25,35a8.12,8.12,0,0,1-2.27-6.12,9.24,9.24,0,0,1,9.68-9.68,8.47,8.47,0,0,1,6.26,2.37A8.56,8.56,0,0,1,41,27.88c0,.23,0,.65-.1,1.26,0,.19,0,.32,0,.4Zm7.18-3.41A3.12,3.12,0,0,0,34.54,24a3,3,0,0,0-2.19-.79,3.42,3.42,0,0,0-2.2.78,4.71,4.71,0,0,0-1.47,2.17Z"/><path class="cls-1" d="M46.85,35.66,42.08,19.74h6.13L49.67,27c0,.1.06.24.1.43a14.29,14.29,0,0,1,.35,2.49c.12-.43.28-.89.47-1.38s.43-1,.71-1.61l3.47-7.17h6.36l-13,24.18H41.92Z"/><path class="cls-1" d="M61.3,36.51l2-12.49H60.48l.68-4.28H64l.75-4.87h5.91l-.78,4.87h3L72.16,24h-3l-2,12.49Z"/><path class="cls-1" d="M72.51,36.51l2.64-16.77h6L78.45,36.51Zm3.08-21.77a3.05,3.05,0,0,1,.93-2.23,3,3,0,0,1,2.23-.93,3.13,3.13,0,0,1,2.29.9A3,3,0,0,1,82,14.74,3.1,3.1,0,0,1,81,17a3.07,3.07,0,0,1-2.27.92A3,3,0,0,1,76.52,17,3.11,3.11,0,0,1,75.59,14.74Z"/><path class="cls-1" d="M95.94,34.27a8.42,8.42,0,0,1-2.7,2.13,7.12,7.12,0,0,1-3.2.73A6,6,0,0,1,85.3,35a8.43,8.43,0,0,1-1.85-5.65A10.55,10.55,0,0,1,86,22.08a8,8,0,0,1,6.26-2.87,6.64,6.64,0,0,1,3.12.72,7.42,7.42,0,0,1,2.49,2.23l.38-2.42h5.62l-2.66,16.77H95.65Zm-6.53-5.55A3.37,3.37,0,0,0,93,32.29a3.68,3.68,0,0,0,2.93-1.37,5.08,5.08,0,0,0,1.17-3.43,3.38,3.38,0,0,0-1-2.53,3.45,3.45,0,0,0-2.55-1,3.78,3.78,0,0,0-3,1.34A5,5,0,0,0,89.41,28.72Z"/><path class="cls-1" d="M108.35,17.33a1.92,1.92,0,0,1-2,1.94,1.93,1.93,0,1,1,0-3.86A1.92,1.92,0,0,1,108.35,17.33Zm-3.45,0a1.49,1.49,0,0,0,1.5,1.53,1.53,1.53,0,0,0,0-3.06A1.49,1.49,0,0,0,104.9,17.33Zm1.18,1h-.44V16.42a3.47,3.47,0,0,1,.74-.06,1.19,1.19,0,0,1,.66.14.51.51,0,0,1,.19.42.48.48,0,0,1-.4.44v0a.56.56,0,0,1,.35.46,1.64,1.64,0,0,0,.14.48h-.48a1.61,1.61,0,0,1-.15-.46c0-.21-.15-.31-.4-.31h-.21Zm0-1.08h.22c.24,0,.44-.09.44-.28s-.13-.3-.41-.3a.73.73,0,0,0-.25,0Z"/></g></g></svg>