<svg xmlns="http://www.w3.org/2000/svg" viewBox="0 0 10.65 20"><defs><style>.cls-1{fill:#fff;}</style></defs><title>Asset 16</title><g id="Layer_2" data-name="Layer 2"><g id="Layer_1-2" data-name="Layer 1"><path class="cls-1" d="M3.43,6.62c0-.92.84-1.5,2.15-1.5a5.3,5.3,0,0,1,3,1.1.47.47,0,0,0,.69-.15l.92-1.71a.47.47,0,0,0-.1-.57A6.73,6.73,0,0,0,6.5,2.31V.47A.47.47,0,0,0,6,0H4.47A.47.47,0,0,0,4,.47v2A4.45,4.45,0,0,0,.2,6.66c0,4.82,7.22,4.33,7.22,6.62,0,.77-.64,1.6-2,1.6A5.8,5.8,0,0,1,2,13.48a.47.47,0,0,0-.67.09L.09,15.15a.47.47,0,0,0,.05.62A7.47,7.47,0,0,0,4,17.65v1.88a.47.47,0,0,0,.47.47H6a.47.47,0,0,0,.47-.47V17.68a4.61,4.61,0,0,0,4.15-4.55c0-4.68-7.22-4.05-7.22-6.51Z"/></g></g></svg>