<svg xmlns="http://www.w3.org/2000/svg" viewBox="0 0 20 20"><defs><style>.cls-1{fill:#fff;}</style></defs><title>Asset 17</title><g id="Layer_2" data-name="Layer 2"><g id="Layer_1-2" data-name="Layer 1"><path class="cls-1" d="M17.86,0H2.14A2.14,2.14,0,0,0,0,2.14V17.86A2.14,2.14,0,0,0,2.14,20H17.86A2.14,2.14,0,0,0,20,17.86V2.14A2.14,2.14,0,0,0,17.86,0ZM4.2,17.14a.67.67,0,0,1-.66-.52l-.67-2.9A.67.67,0,0,1,3.26,13l3.13-1.34a.67.67,0,0,1,.78.19L8.55,13.5A10.35,10.35,0,0,0,13.5,8.55L11.81,7.17a.67.67,0,0,1-.19-.78L13,3.26a.67.67,0,0,1,.76-.39l2.9.67a.67.67,0,0,1,.52.66A12.94,12.94,0,0,1,4.2,17.14Z"/></g></g></svg>