<svg xmlns="http://www.w3.org/2000/svg" viewBox="0 0 20 17.5"><defs><style>.cls-1{fill:#fff;}</style></defs><title>Asset 18</title><g id="Layer_2" data-name="Layer 2"><g id="Layer_1-2" data-name="Layer 1"><path class="cls-1" d="M5.83.94V4.06A.94.94,0,0,1,4.9,5h-4A.94.94,0,0,1,0,4.06V.94A.94.94,0,0,1,.94,0h4a.94.94,0,0,1,.93.94Zm7.09,9.37V7.19A.94.94,0,0,0,12,6.25H8a.94.94,0,0,0-.94.94v3.12a.94.94,0,0,0,.94.94h4A.94.94,0,0,0,12.92,10.31ZM14.17.94V4.06A.94.94,0,0,0,15.1,5h4A.94.94,0,0,0,20,4.06V.94A.94.94,0,0,0,19.06,0h-4A.94.94,0,0,0,14.17.94ZM12.92,4.06V.94A.94.94,0,0,0,12,0H8a.94.94,0,0,0-.94.94V4.06A.94.94,0,0,0,8,5h4A.94.94,0,0,0,12.92,4.06Zm-8,2.19h-4A.94.94,0,0,0,0,7.19v3.12a.94.94,0,0,0,.94.94h4a.94.94,0,0,0,.93-.94V7.19a.94.94,0,0,0-.93-.94ZM0,13.44v3.12a.94.94,0,0,0,.94.94h4a.94.94,0,0,0,.93-.94V13.44a.94.94,0,0,0-.93-.94h-4A.94.94,0,0,0,0,13.44Zm15.1-2.19h4a.94.94,0,0,0,.94-.94V7.19a.94.94,0,0,0-.94-.94h-4a.94.94,0,0,0-.93.94v3.12A.94.94,0,0,0,15.1,11.25Zm0,6.25h4a.94.94,0,0,0,.94-.94V13.44a.94.94,0,0,0-.94-.94h-4a.94.94,0,0,0-.93.94v3.12A.94.94,0,0,0,15.1,17.5Zm-8-4.06v3.12A.94.94,0,0,0,8,17.5h4a.94.94,0,0,0,.94-.94V13.44A.94.94,0,0,0,12,12.5H8A.94.94,0,0,0,7.08,13.44Z"/></g></g></svg>