<svg xmlns="http://www.w3.org/2000/svg" viewBox="0 0 10 8.89"><defs><style>.cls-1{fill:#58697d;}</style></defs><title>Asset 22</title><g id="Layer_2" data-name="Layer 2"><g id="Layer_1-2" data-name="Layer 1"><path class="cls-1" d="M9.87,3.08,7.37,5.44a.41.41,0,0,1-.7-.3V3.89c-2.51,0-3.57.61-2.86,3a.29.29,0,0,1-.44.31A3.38,3.38,0,0,1,2.08,4.68c0-2.5,2-3,4.59-3V.42a.42.42,0,0,1,.7-.31l2.5,2.36A.43.43,0,0,1,9.87,3.08Zm-3.2,3.5v1.2H1.11V2.22H2a.22.22,0,0,0,.15-.06A3.18,3.18,0,0,1,3,1.5a.21.21,0,0,0-.1-.39H.83A.83.83,0,0,0,0,1.94V8.06a.83.83,0,0,0,.83.83H6.94a.84.84,0,0,0,.84-.83V6.51a.21.21,0,0,0-.28-.19,1.47,1.47,0,0,1-.59.06.2.2,0,0,0-.24.2Z"/></g></g></svg>