<svg xmlns="http://www.w3.org/2000/svg" viewBox="0 0 7.5 10"><defs><style>.cls-1{fill:#58697d;}</style></defs><title>Asset 56</title><g id="Layer_2" data-name="Layer 2"><g id="Layer_1-2" data-name="Layer 1"><path class="cls-1" d="M4.38,2.66V0H.47A.47.47,0,0,0,0,.47V9.53A.47.47,0,0,0,.47,10H7a.47.47,0,0,0,.47-.47V3.12H4.84A.47.47,0,0,1,4.38,2.66ZM5.55,4.74,4.38,6.56,5.55,8.39a.23.23,0,0,1-.2.36H4.67a.24.24,0,0,1-.21-.12L3.75,7.29c-.12.28-.2.39-.71,1.34a.24.24,0,0,1-.21.12H2.15A.23.23,0,0,1,2,8.39L3.13,6.56,2,4.74a.23.23,0,0,1,.2-.36h.68A.25.25,0,0,1,3,4.5c.5,1,.39.66.71,1.34L4.46,4.5a.25.25,0,0,1,.21-.12h.68a.23.23,0,0,1,.2.36Zm2-2.36V2.5H5V0h.12a.47.47,0,0,1,.33.14L7.36,2.05A.47.47,0,0,1,7.5,2.38Z"/></g></g></svg>