<svg xmlns="http://www.w3.org/2000/svg" viewBox="0 0 15 20"><defs><style>.cls-1{fill:#fff;}</style></defs><title>Asset 9</title><g id="Layer_2" data-name="Layer 2"><g id="Layer_1-2" data-name="Layer 1"><path class="cls-1" d="M3.8,19.8a13,13,0,0,1,0-18.35.67.67,0,0,1,.83-.1L7.16,2.93a.67.67,0,0,1,.27.82L6.17,6.92a.67.67,0,0,1-.69.42L3.3,7.12a10.3,10.3,0,0,0,0,7l2.18-.22a.67.67,0,0,1,.69.42L7.43,17.5a.67.67,0,0,1-.27.82L4.63,19.9A.68.68,0,0,1,3.8,19.8ZM9.65,3.73a2.46,2.46,0,0,1,0,2.54.47.47,0,0,1-.73.1l-.23-.22a.49.49,0,0,1-.09-.57,1.25,1.25,0,0,0,0-1.16.49.49,0,0,1,.09-.57l.23-.22A.47.47,0,0,1,9.65,3.73ZM13.24.17a7.5,7.5,0,0,1,0,9.66.47.47,0,0,1-.69,0l-.22-.22a.47.47,0,0,1,0-.64,6.25,6.25,0,0,0,0-8,.47.47,0,0,1,0-.64l.22-.22a.47.47,0,0,1,.69,0Zm-1.8,1.75a5,5,0,0,1,0,6.16.47.47,0,0,1-.69.05l-.23-.22a.46.46,0,0,1,0-.62,3.78,3.78,0,0,0,0-4.58.46.46,0,0,1,0-.62l.23-.22a.47.47,0,0,1,.69,0Z"/></g></g></svg>