<svg xmlns="http://www.w3.org/2000/svg" viewBox="0 0 20 17.77"><defs><style>.cls-1{fill:#fff;}</style></defs><title>Asset 13</title><g id="Layer_2" data-name="Layer 2"><g id="Layer_1-2" data-name="Layer 1"><path class="cls-1" d="M14,2.89,17.11,6a.34.34,0,0,1,0,.48L9.53,14.08l-3.22.36a.68.68,0,0,1-.75-.75l.36-3.22L13.5,2.89a.33.33,0,0,1,.48,0Zm5.62-.8L17.91.4A1.36,1.36,0,0,0,16,.4L14.76,1.63a.33.33,0,0,0,0,.47L17.9,5.24a.33.33,0,0,0,.47,0L19.6,4A1.36,1.36,0,0,0,19.6,2.09ZM13.33,12v3.53H2.22V4.44h8a.42.42,0,0,0,.3-.12l1.39-1.39a.42.42,0,0,0-.3-.71H1.67A1.67,1.67,0,0,0,0,3.89V16.11a1.66,1.66,0,0,0,1.67,1.66H13.89a1.66,1.66,0,0,0,1.67-1.66V10.63a.42.42,0,0,0-.72-.3l-1.39,1.39A.47.47,0,0,0,13.33,12Z"/></g></g></svg>