<svg xmlns="http://www.w3.org/2000/svg" viewBox="0 0 20 10"><defs><style>.cls-1{fill:#fff;}</style></defs><title>Asset 8</title><g id="Layer_2" data-name="Layer 2"><g id="Layer_1-2" data-name="Layer 1"><path class="cls-1" d="M20,.75v8.5a.76.76,0,0,1-.75.75H.75A.76.76,0,0,1,0,9.25V.75A.76.76,0,0,1,.75,0h18.5A.76.76,0,0,1,20,.75ZM3,9A2,2,0,0,0,1,7V9ZM3,1H1V3A2,2,0,0,0,3,1Zm9.5,4A2.78,2.78,0,0,0,10,2,2.78,2.78,0,0,0,7.5,5,2.78,2.78,0,0,0,10,8,2.78,2.78,0,0,0,12.5,5ZM19,7a2,2,0,0,0-2,2h2Zm0-6H17a2,2,0,0,0,2,2ZM8.67,6.36A.33.33,0,0,1,9,6h.47V4.75a3.27,3.27,0,0,1,0-.33h0a.51.51,0,0,1-.09.12.31.31,0,0,1-.48,0l-.18-.2a.33.33,0,0,1,0-.51l.68-.62A.59.59,0,0,1,9.91,3h.38a.32.32,0,0,1,.36.36V6h.49a.32.32,0,0,1,.36.36v.28a.32.32,0,0,1-.36.36H9a.33.33,0,0,1-.37-.36V6.36Z"/></g></g></svg>