<svg xmlns="http://www.w3.org/2000/svg" viewBox="0 0 10 10"><defs><style>.cls-1{fill:#fff;}</style></defs><title>Asset 58</title><g id="Layer_2" data-name="Layer 2"><g id="Layer_1-2" data-name="Layer 1"><path class="cls-1" d="M8.41,9.82,9.82,8.41a.63.63,0,0,0,0-.88L7.29,5,9.82,2.47a.63.63,0,0,0,0-.88L8.41.18a.63.63,0,0,0-.88,0L5,2.71,2.47.18a.63.63,0,0,0-.88,0L.18,1.59a.63.63,0,0,0,0,.88L2.71,5,.18,7.53a.63.63,0,0,0,0,.88L1.59,9.82a.63.63,0,0,0,.88,0L5,7.29,7.53,9.82A.63.63,0,0,0,8.41,9.82Z"/></g></g></svg>