<svg xmlns="http://www.w3.org/2000/svg" viewBox="0 0 14.76 16.87">
<defs>
<style>.cls-1{fill:#009639;opacity:0.9;}
</style>
</defs>
<title>Asset 30</title>
<g id="Layer_2" data-name="Layer 2">
<g id="Layer_1-2" data-name="Layer 1">
<path class="cls-1" d="M14.37,5.27H.4A.4.4,0,0,1,0,4.88V3.69A1.58,1.58,0,0,1,1.58,2.11H3.16V.4a.4.4,0,0,1,.4-.4H4.88a.4.4,0,0,1,.39.4V2.11H9.49V.4A.4.4,0,0,1,9.88,0H11.2a.4.4,0,0,1,.4.4V2.11h1.58a1.58,1.58,0,0,1,1.58,1.58V4.88A.4.4,0,0,1,14.37,5.27ZM.4,6.33h14a.39.39,0,0,1,.39.39v8.57a1.58,1.58,0,0,1-1.58,1.58H1.58A1.58,1.58,0,0,1,0,15.29V6.72A.39.39,0,0,1,.4,6.33Zm3.82,6.72a.4.4,0,0,0-.4-.4H2.5a.4.4,0,0,0-.39.4v1.32a.4.4,0,0,0,.39.39H3.82a.4.4,0,0,0,.4-.39Zm0-4.22a.4.4,0,0,0-.4-.4H2.5a.4.4,0,0,0-.39.4v1.32a.39.39,0,0,0,.39.39H3.82a.39.39,0,0,0,.4-.39Zm4.21,4.22a.39.39,0,0,0-.39-.4H6.72a.39.39,0,0,0-.39.4v1.32a.39.39,0,0,0,.39.39H8a.39.39,0,0,0,.39-.39Zm0-4.22A.39.39,0,0,0,8,8.43H6.72a.39.39,0,0,0-.39.4v1.32a.38.38,0,0,0,.39.39H8a.38.38,0,0,0,.39-.39Zm4.22,4.22a.4.4,0,0,0-.39-.4H10.94a.4.4,0,0,0-.4.4v1.32a.4.4,0,0,0,.4.39h1.32a.4.4,0,0,0,.39-.39Zm0-4.22a.4.4,0,0,0-.39-.4H10.94a.4.4,0,0,0-.4.4v1.32a.39.39,0,0,0,.4.39h1.32a.39.39,0,0,0,.39-.39Z"/></g></g></svg>