<svg xmlns="http://www.w3.org/2000/svg" viewBox="0 0 12.5 20"><defs><style>.cls-1{fill:#fff;}</style></defs><title>Asset 37</title><g id="Layer_2" data-name="Layer 2"><g id="Layer_1-2" data-name="Layer 1"><path class="cls-1" d="M10.62,0H1.88A1.88,1.88,0,0,0,0,1.88V18.12A1.88,1.88,0,0,0,1.88,20h8.74a1.88,1.88,0,0,0,1.88-1.88V1.88A1.88,1.88,0,0,0,10.62,0ZM6.25,18.75A1.25,1.25,0,1,1,7.5,17.5,1.25,1.25,0,0,1,6.25,18.75Zm4.37-4.22a.47.47,0,0,1-.46.47H2.34a.47.47,0,0,1-.46-.47V2.34a.47.47,0,0,1,.46-.46h7.82a.47.47,0,0,1,.46.46ZM6.34,11.79l-.9-4.17-1,2.6L3.71,8.43l-.32.48H2.61a.3.3,0,1,1,0-.58H3L3.84,7l.58,1.36,1.2-3.23.92,4.2.82-2.16.85,1.74.36-.58h1.5a.3.3,0,1,1,0,.58H9l-.87,1.41L7.44,8.9Z"/></g></g></svg>