<svg xmlns="http://www.w3.org/2000/svg" viewBox="0 0 10 10"><defs><style>.cls-1{fill:#58697d;}</style></defs><title>Asset 49</title><g id="Layer_2" data-name="Layer 2"><g id="Layer_1-2" data-name="Layer 1"><path class="cls-1" d="M7.86,4.64v.72a.27.27,0,0,1-.27.26h-2v2a.27.27,0,0,1-.26.27H4.64a.27.27,0,0,1-.26-.27v-2h-2a.27.27,0,0,1-.27-.26V4.64a.27.27,0,0,1,.27-.26h2v-2a.27.27,0,0,1,.26-.27h.72a.27.27,0,0,1,.26.27v2h2A.27.27,0,0,1,7.86,4.64ZM10,1.07V8.93A1.07,1.07,0,0,1,8.93,10H1.07A1.07,1.07,0,0,1,0,8.93V1.07A1.07,1.07,0,0,1,1.07,0H8.93A1.07,1.07,0,0,1,10,1.07ZM8.93,8.79V1.21a.14.14,0,0,0-.14-.14H1.21a.14.14,0,0,0-.14.14V8.79a.14.14,0,0,0,.14.14H8.79A.14.14,0,0,0,8.93,8.79Z"/></g></g></svg>