<svg xmlns="http://www.w3.org/2000/svg" viewBox="0 0 20 17.3"><defs><style>.cls-1{fill:#fff;}</style></defs><title>Asset 44</title><g id="Layer_2" data-name="Layer 2"><g id="Layer_1-2" data-name="Layer 1"><path class="cls-1" d="M.41,13H2.3a.41.41,0,0,1,.4.41v3.51a.41.41,0,0,1-.4.41H.41A.41.41,0,0,1,0,16.89V13.38A.41.41,0,0,1,.41,13Zm3.91-1.21v5.13a.42.42,0,0,0,.41.41H6.62A.42.42,0,0,0,7,16.89V11.76a.41.41,0,0,0-.41-.41H4.73A.41.41,0,0,0,4.32,11.76ZM8.65,9.05v7.84a.41.41,0,0,0,.4.41H11a.41.41,0,0,0,.4-.41V9.05a.4.4,0,0,0-.4-.4H9.05A.4.4,0,0,0,8.65,9.05ZM13,5.27V16.89a.42.42,0,0,0,.41.41h1.89a.42.42,0,0,0,.41-.41V5.27a.42.42,0,0,0-.41-.41H13.38A.42.42,0,0,0,13,5.27ZM17.3.41V16.89a.41.41,0,0,0,.4.41h1.89a.41.41,0,0,0,.41-.41V.41A.41.41,0,0,0,19.59,0H17.7A.4.4,0,0,0,17.3.41Z"/></g></g></svg>