<svg xmlns="http://www.w3.org/2000/svg" viewBox="0 0 15 20"><defs><style>.cls-1{fill:#fff;}</style></defs><title>Asset 36</title><g id="Layer_2" data-name="Layer 2"><g id="Layer_1-2" data-name="Layer 1"><path class="cls-1" d="M11.25,9.69v1.09a.47.47,0,0,1-.47.47H4.22a.47.47,0,0,1-.47-.47V9.69a.47.47,0,0,1,.47-.47h6.56A.47.47,0,0,1,11.25,9.69Zm-.47,2.81H4.22a.47.47,0,0,0-.47.47v1.09a.47.47,0,0,0,.47.47h6.56a.47.47,0,0,0,.47-.47V13A.47.47,0,0,0,10.78,12.5ZM15,5.15v13A1.88,1.88,0,0,1,13.12,20H1.88A1.88,1.88,0,0,1,0,18.12V1.88A1.88,1.88,0,0,1,1.88,0h8a1.88,1.88,0,0,1,1.32.55l3.28,3.28A1.88,1.88,0,0,1,15,5.15ZM10,2V5h3Zm3.12,16.09V6.88H9.06a.94.94,0,0,1-.94-.94V1.88H1.88V18.12Z"/></g></g></svg>