<svg xmlns="http://www.w3.org/2000/svg" viewBox="0 0 7.5 10"><defs><style>.cls-1{fill:#58697d;}</style></defs><title>Asset 54</title><g id="Layer_2" data-name="Layer 2"><g id="Layer_1-2" data-name="Layer 1"><path class="cls-1" d="M3.55,5a2.07,2.07,0,0,1,0-.91C3.68,4.09,3.66,4.81,3.55,5Zm0,.92A8.47,8.47,0,0,1,3,7.15a7.06,7.06,0,0,1,1.23-.43,2.71,2.71,0,0,1-.67-.8ZM1.68,8.36s.26-.1.68-.78A2.55,2.55,0,0,0,1.68,8.36ZM4.84,3.12H7.5V9.53A.47.47,0,0,1,7,10H.47A.47.47,0,0,1,0,9.53V.47A.47.47,0,0,1,.47,0H4.38V2.66A.47.47,0,0,0,4.84,3.12ZM4.69,6.48a2,2,0,0,1-.84-1.05A2.7,2.7,0,0,0,4,4.18.49.49,0,0,0,3,4,3.2,3.2,0,0,0,3.2,5.55a17.51,17.51,0,0,1-.8,1.67h0C1.87,7.5,1,8.09,1.33,8.55a.61.61,0,0,0,.42.2c.35,0,.7-.35,1.2-1.21a11.61,11.61,0,0,1,1.54-.45,3,3,0,0,0,1.25.38.51.51,0,0,0,.39-.85C5.85,6.36,5.06,6.43,4.69,6.48ZM7.36,2.05,5.45.14A.47.47,0,0,0,5.12,0H5V2.5H7.5V2.38A.47.47,0,0,0,7.36,2.05ZM5.92,7c.08-.06,0-.24-.84-.18C5.8,7.17,5.92,7,5.92,7Z"/></g></g></svg>