<svg xmlns="http://www.w3.org/2000/svg" viewBox="0 0 20 16"><defs><style>.cls-1{fill:#fff;opacity:0.8;}</style></defs><title>Asset 39</title><g id="Layer_2" data-name="Layer 2"><g id="Layer_1-2" data-name="Layer 1"><path class="cls-1" d="M11,14h5.25a.76.76,0,0,1,.75.75v.5a.76.76,0,0,1-.75.75H3.75A.76.76,0,0,1,3,15.25v-.5A.76.76,0,0,1,3.75,14H9V4.79A2.47,2.47,0,0,1,7.55,3H3.75A.76.76,0,0,1,3,2.25v-.5A.76.76,0,0,1,3.75,1H8a2.5,2.5,0,0,1,4,0h4.25a.76.76,0,0,1,.75.75v.5a.76.76,0,0,1-.75.75h-3.8A2.47,2.47,0,0,1,11,4.79Zm9-3.5c0-.51,0-.27-2.66-5.67a1.5,1.5,0,0,0-2.68,0C11.94,10.27,12,10,12,10.5h0c0,1.38,1.79,2.5,4,2.5s4-1.12,4-2.5Zm-4-5L18.25,10h-4.5Zm-8,5c0-.51,0-.27-2.66-5.67a1.5,1.5,0,0,0-2.68,0C-.06,10.27,0,10,0,10.5H0C0,11.88,1.79,13,4,13s4-1.12,4-2.5Zm-4-5L6.25,10H1.75Z"/></g></g></svg>