<svg xmlns="http://www.w3.org/2000/svg" viewBox="0 0 10 9.41"><defs><style>.cls-1{fill:#58697d;}</style></defs><title>Asset 21</title><g id="Layer_2" data-name="Layer 2"><g id="Layer_1-2" data-name="Layer 1"><path class="cls-1" d="M4.74,2.65l.91.27a.15.15,0,0,1,.12.14.16.16,0,0,1-.16.16H5a.58.58,0,0,1-.19,0,.23.23,0,0,0-.26,0l-.32.32a.22.22,0,0,0,0,.34,1.44,1.44,0,0,0,.58.21v.32a.3.3,0,0,0,.3.3h.29a.3.3,0,0,0,.29-.3V4.09a1,1,0,0,0,.91-1.16,1.08,1.08,0,0,0-.79-.88l-.92-.26a.16.16,0,0,1-.11-.15A.15.15,0,0,1,5,1.49h.61a.43.43,0,0,1,.19,0,.23.23,0,0,0,.26,0l.32-.32a.23.23,0,0,0,0-.34A1.44,1.44,0,0,0,5.74.62V.29A.3.3,0,0,0,5.44,0H5.15a.3.3,0,0,0-.3.29V.62A1,1,0,0,0,4,1.78,1.07,1.07,0,0,0,4.74,2.65ZM9.81,6a.55.55,0,0,0-.74,0L7.47,7.39a1.06,1.06,0,0,1-.69.26H4.72a.3.3,0,0,1-.28-.3.29.29,0,0,1,.28-.29H6.08a.59.59,0,0,0,.58-.49.58.58,0,0,0-.55-.69H3.33a1.91,1.91,0,0,0-1.28.49l-.81.69h-1A.29.29,0,0,0,0,7.35V9.12a.29.29,0,0,0,.28.29H6.47a1.08,1.08,0,0,0,.7-.26L9.79,6.93a.6.6,0,0,0,0-.9Z"/></g></g></svg>